<?xml version="1.0" encoding="UTF-8"?>
<svg width="57px" height="57px" viewBox="0 0 57 57" version="1.1" xmlns="http://www.w3.org/2000/svg" xmlns:xlink="http://www.w3.org/1999/xlink">
    <!-- Generator: Sketch 52.5 (67469) - http://www.bohemiancoding.com/sketch -->
    <title>month-grey copy</title>
    <desc>Created with Sketch.</desc>
    <g id="-Subscription" stroke="none" stroke-width="1" fill="none" fill-rule="evenodd">
        <g id="My-Products&gt;subscription" transform="translate(-182.000000, -572.000000)" fill="#D8D8D8" fill-rule="nonzero">
            <path d="M182,572 L239,572 L239,629 L182,629 L182,572 Z M191,582 L191,591 L201,591 L201,582 L191,582 Z M206,582 L206,591 L216,591 L216,582 L206,582 Z M221,582 L221,591 L231,591 L231,582 L221,582 Z M191,596 L191,605 L201,605 L201,596 L191,596 Z M206,596 L206,605 L216,605 L216,596 L206,596 Z M221,596 L221,605 L231,605 L231,596 L221,596 Z M191,610 L191,619 L201,619 L201,610 L191,610 Z M206,610 L206,619 L216,619 L216,610 L206,610 Z M221,610 L221,619 L231,619 L231,610 L221,610 Z" id="month-grey-copy"></path>
        </g>
    </g>
</svg>