<?xml version="1.0" encoding="UTF-8"?>
<svg width="57px" height="57px" viewBox="0 0 57 57" version="1.1" xmlns="http://www.w3.org/2000/svg" xmlns:xlink="http://www.w3.org/1999/xlink">
    <!-- Generator: Sketch 52.5 (67469) - http://www.bohemiancoding.com/sketch -->
    <title>Month-blue Copy</title>
    <desc>Created with Sketch.</desc>
    <g id="-Subscription" stroke="none" stroke-width="1" fill="none" fill-rule="evenodd">
        <g id="My-Products&gt;subscription" transform="translate(-249.000000, -572.000000)" fill="#008DFF" fill-rule="nonzero">
            <path d="M249,572 L306,572 L306,629 L249,629 L249,572 Z M258,582 L258,591 L268,591 L268,582 L258,582 Z M273,582 L273,591 L283,591 L283,582 L273,582 Z M288,582 L288,591 L298,591 L298,582 L288,582 Z M258,596 L258,605 L268,605 L268,596 L258,596 Z M273,596 L273,605 L283,605 L283,596 L273,596 Z M288,596 L288,605 L298,605 L298,596 L288,596 Z M258,610 L258,619 L268,619 L268,610 L258,610 Z M273,610 L273,619 L283,619 L283,610 L273,610 Z M288,610 L288,619 L298,619 L298,610 L288,610 Z" id="Month-blue-Copy"></path>
        </g>
    </g>
</svg>