<?xml version="1.0" encoding="UTF-8"?>
<svg width="57px" height="57px" viewBox="0 0 57 57" version="1.1" xmlns="http://www.w3.org/2000/svg" xmlns:xlink="http://www.w3.org/1999/xlink">
    <!-- Generator: Sketch 52.5 (67469) - http://www.bohemiancoding.com/sketch -->
    <title>Week-grey Copy</title>
    <desc>Created with Sketch.</desc>
    <g id="-Subscription" stroke="none" stroke-width="1" fill="none" fill-rule="evenodd">
        <g id="My-Products&gt;subscription" transform="translate(-182.000000, -653.000000)" fill="#D8D8D8" fill-rule="nonzero">
            <path d="M239,665 L182,665 L182,653 L239,653 L239,665 Z M239,667 L239,710 L182,710 L182,667 L239,667 Z M192,677 C191.447715,677 191,677.447715 191,678 L191,685 C191,685.552285 191.447715,686 192,686 L200,686 C200.552285,686 201,685.552285 201,685 L201,678 C201,677.447715 200.552285,677 200,677 L192,677 Z M206,677 L206,700 L216,700 L216,677 L206,677 Z M221,677 L221,700 L231,700 L231,677 L221,677 Z M191,691 L191,700 L201,700 L201,691 L191,691 Z" id="Week-grey-Copy"></path>
        </g>
    </g>
</svg>