<?xml version="1.0" encoding="UTF-8"?>
<svg width="57px" height="57px" viewBox="0 0 57 57" version="1.1" xmlns="http://www.w3.org/2000/svg" xmlns:xlink="http://www.w3.org/1999/xlink">
    <!-- Generator: Sketch 52.5 (67469) - http://www.bohemiancoding.com/sketch -->
    <title>Week-blue Copy</title>
    <desc>Created with Sketch.</desc>
    <g id="-Subscription" stroke="none" stroke-width="1" fill="none" fill-rule="evenodd">
        <g id="My-Products&gt;subscription" transform="translate(-249.000000, -653.000000)" fill="#008DFF" fill-rule="nonzero">
            <path d="M306,665 L249,665 L249,653 L306,653 L306,665 Z M306,667 L306,710 L249,710 L249,667 L306,667 Z M258,677 L258,686 L268,686 L268,677 L258,677 Z M273,677 L273,700 L283,700 L283,677 L273,677 Z M288,677 L288,700 L298,700 L298,677 L288,677 Z M258,691 L258,700 L268,700 L268,691 L258,691 Z" id="Week-blue-Copy"></path>
        </g>
    </g>
</svg>